<svg width="51" height="79" viewBox="0 0 51 79" fill="none" xmlns="http://www.w3.org/2000/svg">
<path d="M4.45842 29.4897C1.63113 25.938 0.108742 20.9872 0 15.9288C2.93603 17.5432 5.54584 20.3414 7.93816 23.8931C10.3305 27.4448 12.1791 31.3194 13.7015 35.1939C10.548 34.7634 7.17697 33.0414 4.45842 29.4897Z" fill="url(#paint0_radial)"/>
<path d="M15.6589 23.2474C13.7015 26.6914 13.1578 30.8889 13.919 35.0863C16.5288 33.149 18.5949 30.3507 20.226 27.1219C21.8572 23.7855 22.9446 20.4491 23.3795 17.1126C20.4435 17.866 17.5075 19.9109 15.6589 23.2474Z" fill="url(#paint1_radial)"/>
<path d="M9.89555 11.7313C9.13435 16.4669 10.0043 21.0948 11.9616 24.5389C13.484 20.9872 14.5714 17.005 15.3326 12.7C15.9851 8.39488 16.2026 4.08981 15.9851 0C12.9403 2.79829 10.6567 6.99574 9.89555 11.7313Z" fill="url(#paint2_radial)"/>
<path d="M10.7655 49.293C7.06824 46.8176 4.02347 42.6202 2.39234 37.8846C5.6546 38.5304 9.02559 40.2524 12.3966 42.8354C15.7676 45.4185 18.7036 48.432 21.3134 51.7684C18.2687 52.4142 14.5714 51.7684 10.7655 49.293Z" fill="url(#paint3_radial)"/>
<path d="M19.5735 39.9295C18.8123 43.6964 19.5735 47.8939 21.6396 51.5532C23.4882 48.9701 24.5757 45.6337 25.2281 42.082C25.7718 38.4227 25.7718 34.9787 25.1194 31.7499C22.4008 33.4719 20.3347 36.1626 19.5735 39.9295Z" fill="url(#paint4_radial)"/>
<path d="M23.0533 66.1904C18.7036 64.8989 14.5714 61.8853 11.5266 57.9032C14.7889 57.4727 18.5948 58.1184 22.6183 59.5176C26.6417 61.0243 30.4477 62.9616 34.0362 65.3294C31.2089 66.9438 27.4029 67.4819 23.0533 66.1904Z" fill="url(#paint5_radial)"/>
<path d="M28.4904 54.5667C28.9254 58.4413 30.9914 62.2082 34.145 65.1142C35.0149 61.993 35.0149 58.5489 34.4712 54.8896C33.8187 51.2303 32.7313 48.0015 31.2089 44.988C29.1428 47.4634 28.0554 50.7998 28.4904 54.5667Z" fill="url(#paint6_radial)"/>
<path d="M40.452 78.6751C35.7761 78.7827 30.774 77.0607 26.5331 74.1548C29.5778 72.7557 33.3838 72.2175 37.7335 72.4328C42.0832 72.648 46.5416 73.4014 50.8913 74.5853C48.7164 76.9531 45.1279 78.5675 40.452 78.6751Z" fill="url(#paint7_radial)"/>
<path d="M41.7569 65.9752C43.4968 69.5268 46.8678 72.5404 51 74.3701C50.7825 71.1413 49.5864 67.8048 47.7377 64.4684C45.8891 61.132 43.7143 58.3337 41.2132 55.9659C40.0171 58.8718 40.0171 62.4235 41.7569 65.9752Z" fill="url(#paint8_radial)"/>
<defs>
<radialGradient id="paint0_radial" cx="0" cy="0" r="1" gradientUnits="userSpaceOnUse" gradientTransform="translate(89.5 52.5) rotate(175.166) scale(100.859 65.3763)">
<stop offset="0.360744" stop-color="white" stop-opacity="0"/>
<stop offset="0.866252" stop-color="white"/>
</radialGradient>
<radialGradient id="paint1_radial" cx="0" cy="0" r="1" gradientUnits="userSpaceOnUse" gradientTransform="translate(89.5 52.5) rotate(175.166) scale(100.859 65.3763)">
<stop offset="0.360744" stop-color="white" stop-opacity="0"/>
<stop offset="0.866252" stop-color="white"/>
</radialGradient>
<radialGradient id="paint2_radial" cx="0" cy="0" r="1" gradientUnits="userSpaceOnUse" gradientTransform="translate(89.5 52.5) rotate(175.166) scale(100.859 65.3763)">
<stop offset="0.360744" stop-color="white" stop-opacity="0"/>
<stop offset="0.866252" stop-color="white"/>
</radialGradient>
<radialGradient id="paint3_radial" cx="0" cy="0" r="1" gradientUnits="userSpaceOnUse" gradientTransform="translate(89.5 52.5) rotate(175.166) scale(100.859 65.3763)">
<stop offset="0.360744" stop-color="white" stop-opacity="0"/>
<stop offset="0.866252" stop-color="white"/>
</radialGradient>
<radialGradient id="paint4_radial" cx="0" cy="0" r="1" gradientUnits="userSpaceOnUse" gradientTransform="translate(89.5 52.5) rotate(175.166) scale(100.859 65.3763)">
<stop offset="0.360744" stop-color="white" stop-opacity="0"/>
<stop offset="0.866252" stop-color="white"/>
</radialGradient>
<radialGradient id="paint5_radial" cx="0" cy="0" r="1" gradientUnits="userSpaceOnUse" gradientTransform="translate(89.5 52.5) rotate(175.166) scale(100.859 65.3763)">
<stop offset="0.360744" stop-color="white" stop-opacity="0"/>
<stop offset="0.866252" stop-color="white"/>
</radialGradient>
<radialGradient id="paint6_radial" cx="0" cy="0" r="1" gradientUnits="userSpaceOnUse" gradientTransform="translate(89.5 52.5) rotate(175.166) scale(100.859 65.3763)">
<stop offset="0.360744" stop-color="white" stop-opacity="0"/>
<stop offset="0.866252" stop-color="white"/>
</radialGradient>
<radialGradient id="paint7_radial" cx="0" cy="0" r="1" gradientUnits="userSpaceOnUse" gradientTransform="translate(89.5 52.5) rotate(175.166) scale(100.859 65.3763)">
<stop offset="0.360744" stop-color="white" stop-opacity="0"/>
<stop offset="0.866252" stop-color="white"/>
</radialGradient>
<radialGradient id="paint8_radial" cx="0" cy="0" r="1" gradientUnits="userSpaceOnUse" gradientTransform="translate(89.5 52.5) rotate(175.166) scale(100.859 65.3763)">
<stop offset="0.360744" stop-color="white" stop-opacity="0"/>
<stop offset="0.866252" stop-color="white"/>
</radialGradient>
</defs>
</svg>
