<svg width="20" height="20" viewBox="0 0 20 20" fill="none" xmlns="http://www.w3.org/2000/svg">
	<path fill-rule="evenodd" clip-rule="evenodd" d="M10 0C7.28377 0 6.94377 0.0125 5.87752 0.06C4.81252 0.11 4.08752 0.2775 3.45002 0.525C2.79252 0.78 2.23377 1.1225 1.67877 1.67875C1.12252 2.23375 0.778765 2.79125 0.525015 3.45C0.277515 4.0875 0.108765 4.8125 0.0600153 5.8775C0.0100153 6.94375 1.52588e-05 7.28375 1.52588e-05 10C1.52588e-05 12.7162 0.0125153 13.0562 0.0600153 14.1225C0.110015 15.1875 0.277515 15.9137 0.525015 16.55C0.780015 17.2075 1.12252 17.7662 1.67877 18.3212C2.23377 18.8775 2.79127 19.2212 3.45002 19.475C4.08752 19.7225 4.81252 19.8912 5.87752 19.94C6.94377 19.99 7.28377 20 10 20C12.7163 20 13.0563 19.9875 14.1225 19.94C15.1875 19.89 15.9138 19.7225 16.55 19.475C17.2075 19.22 17.7663 18.8775 18.3213 18.3212C18.8775 17.7662 19.2213 17.2087 19.475 16.55C19.7225 15.9125 19.8913 15.1875 19.94 14.1225C19.99 13.0562 20 12.7162 20 10C20 7.28375 19.9875 6.94375 19.94 5.8775C19.89 4.8125 19.7225 4.08625 19.475 3.45C19.22 2.7925 18.8775 2.23375 18.3213 1.67875C17.7663 1.1225 17.2088 0.77875 16.55 0.525C15.9125 0.2775 15.1875 0.10875 14.1225 0.06C13.0563 0.01 12.7163 0 10 0ZM10 1.8C12.67 1.8 12.9875 1.8125 14.0413 1.86C15.0163 1.905 15.545 2.0675 15.8975 2.205C16.365 2.38625 16.6975 2.6025 17.0475 2.9525C17.3975 3.3025 17.6138 3.635 17.795 4.1025C17.9325 4.455 18.095 4.98375 18.14 5.95875C18.1875 7.01375 18.1988 7.33 18.1988 10C18.1988 12.67 18.1863 12.9875 18.1363 14.0412C18.0863 15.0162 17.9238 15.545 17.7863 15.8975C17.5988 16.365 17.3863 16.6975 17.0363 17.0475C16.6863 17.3975 16.3488 17.6137 15.8863 17.795C15.5363 17.9325 14.9988 18.095 14.0238 18.14C12.9613 18.1875 12.6488 18.1987 9.97377 18.1987C7.29877 18.1987 6.98627 18.1862 5.92377 18.1362C4.94877 18.0862 4.41127 17.9237 4.06127 17.7862C3.58627 17.5987 3.26127 17.3862 2.91127 17.0362C2.56127 16.6862 2.33627 16.3487 2.16127 15.8862C2.02377 15.5362 1.86127 14.9987 1.81127 14.0237C1.77377 12.9737 1.76127 12.6487 1.76127 9.98625C1.76127 7.32375 1.77377 6.99875 1.81127 5.93625C1.86127 4.96125 2.02377 4.42375 2.16127 4.07375C2.33627 3.59875 2.56127 3.27375 2.91127 2.92375C3.26127 2.57375 3.58627 2.34875 4.06127 2.17375C4.41127 2.03625 4.93627 1.87375 5.91127 1.82375C6.97377 1.78625 7.28626 1.77375 9.96127 1.77375L10 1.8ZM10 4.865C7.16252 4.865 4.86502 7.165 4.86502 10C4.86502 12.8375 7.16502 15.135 10 15.135C12.8375 15.135 15.135 12.835 15.135 10C15.135 7.1625 12.835 4.865 10 4.865ZM10 13.3337C8.15876 13.3337 6.66627 11.8412 6.66627 10C6.66627 8.15875 8.15876 6.66625 10 6.66625C11.8413 6.66625 13.3338 8.15875 13.3338 10C13.3338 11.8412 11.8413 13.3337 10 13.3337ZM16.5375 4.6625C16.5375 5.325 16 5.8625 15.3375 5.8625C14.675 5.8625 14.1375 5.325 14.1375 4.6625C14.1375 4 14.675 3.4625 15.3375 3.4625C16 3.4625 16.5375 4 16.5375 4.6625Z" fill="black"/>
</svg>
