<svg width="84" height="30" viewBox="0 0 84 30" fill="none" xmlns="http://www.w3.org/2000/svg">
<path d="M19.2945 4.52055H14.2406L9.87101 12.4686L5.50144 4.52055H0L7.02816 17.2717V24.5335H12.2401V17.3574L19.2945 4.52055Z" fill="#FD2E3D"/>
<path d="M24.7415 8.78045C22.5041 8.78045 20.0824 9.40943 18.4504 10.5816L20.135 14.2697C21.1089 13.4406 22.6357 12.926 24.0044 12.926C25.9786 12.926 26.9526 13.8123 27.0316 15.3847H24.1887C19.7665 15.3847 17.8449 17.1573 17.8449 20.0163C17.8449 22.7038 19.7402 24.7908 23.1621 24.7908C25.2416 24.7908 26.663 24.0189 27.3737 22.5322V24.5335H32.0329V15.9279C32.0329 11.0105 29.3743 8.78045 24.7415 8.78045ZM24.5572 21.36C23.3727 21.36 22.6883 20.7025 22.6883 19.7876C22.6883 18.8441 23.2674 18.2151 24.8731 18.2151H27.0316V19.5589C26.6367 20.7882 25.6628 21.36 24.5572 21.36Z" fill="#FD2E3D"/>
<path d="M40.3753 24.7908C45.0081 24.7908 47.4298 22.5608 47.4298 19.7018C47.4298 13.555 39.0328 15.8708 39.0328 13.7265C39.0328 13.1547 39.6383 12.6401 41.3229 12.6401C42.5864 12.6401 44.0078 12.926 45.4293 13.7837L46.9297 10.0956C45.5082 9.23789 43.2971 8.78045 41.2966 8.78045C36.8217 8.78045 34.3474 11.0105 34.3474 13.9266C34.3474 20.1307 42.7707 17.7577 42.7707 19.8448C42.7707 20.5023 42.2179 20.9026 40.5332 20.9026C38.7959 20.9026 36.8744 20.3594 35.5583 19.4731L34.0579 23.1898C35.453 24.1332 37.9536 24.7908 40.3753 24.7908Z" fill="#FD2E3D"/>
<path d="M58.8769 8.78045C57.0869 8.78045 55.4812 9.43802 54.3494 10.7246V9.03776H49.585V24.5335H54.5863V17.0429C54.5863 14.4699 55.8234 13.3834 57.4291 13.3834C58.8769 13.3834 59.7718 14.3269 59.7718 16.5569V24.5335H64.7731V15.6706C64.7731 10.8675 62.2198 8.78045 58.8769 8.78045Z" fill="#FD2E3D"/>
<path d="M75.2786 24.7908C79.9903 24.7908 83.3333 21.4458 83.3333 16.757C83.3333 12.0969 79.9903 8.78045 75.2786 8.78045C70.6195 8.78045 67.2238 12.0969 67.2238 16.757C67.2238 21.4458 70.6195 24.7908 75.2786 24.7908ZM75.2786 20.4737C73.5939 20.4737 72.2778 19.13 72.2778 16.757C72.2778 14.4127 73.5939 13.0975 75.2786 13.0975C76.9896 13.0975 78.2794 14.4127 78.2794 16.757C78.2794 19.13 76.9896 20.4737 75.2786 20.4737Z" fill="#FD2E3D"/>
<path d="M23.1409 0.506757C23.1409 0.226883 23.3741 0 23.6618 0H26.7868C27.0744 0 27.3076 0.226883 27.3076 0.506757V3.5473C27.3076 3.82717 27.0744 4.05405 26.7868 4.05405H23.6618C23.3741 4.05405 23.1409 3.82717 23.1409 3.5473V0.506757Z" fill="#5EC462"/>
</svg>
