<svg width="22" height="18" viewBox="0 0 22 18" fill="none" xmlns="http://www.w3.org/2000/svg">
	<path d="M2.05397 7.90145L14.7111 2.68653C15.9605 2.14334 20.1977 0.405088 20.1977 0.405088C20.1977 0.405088 22.1534 -0.355339 21.9903 1.49146C21.936 2.25189 21.5017 4.91377 21.0669 7.79259L19.7089 16.321C19.7089 16.321 19.6002 17.5704 18.6752 17.7876C17.7501 18.0049 16.2307 17.0272 15.9592 16.8098C15.742 16.6469 11.885 14.2024 10.4726 13.0074C10.0923 12.6816 9.65778 12.0295 10.5269 11.2691C12.4826 9.4765 14.8185 7.24925 16.2307 5.83694C16.8826 5.18505 17.5344 3.66404 14.8184 5.51115L7.15894 10.6717C7.15894 10.6717 6.28965 11.2149 4.6601 10.7261C3.03054 10.2372 1.12923 9.58535 1.12923 9.58535C1.12923 9.58535 -0.174536 8.77057 2.05271 7.9016L2.05397 7.90145Z" fill="black"/>
</svg>
