<svg width="20" height="15" viewBox="0 0 20 15" fill="none" xmlns="http://www.w3.org/2000/svg">
	<path fill-rule="evenodd" clip-rule="evenodd" d="M1.52588e-05 6.77625C1.52588e-05 5.15875 0.200015 3.53875 0.200015 3.53875C0.200015 3.53875 0.395015 2.16375 0.995015 1.555C1.75502 0.75875 2.75502 0.78375 3.20002 0.7C4.80001 0.545 10 0.5 10 0.5C10 0.5 14.2025 0.505 17 0.7075C17.3925 0.755 18.245 0.7575 19.005 1.555C19.605 2.1625 19.8 3.54 19.8 3.54C19.8 3.54 20 5.1575 20 6.7775V8.35C20 9.97 19.8 11.5875 19.8 11.5875C19.8 11.5875 19.605 12.965 19.005 13.5725C18.245 14.37 17.3925 14.3725 17 14.42C14.2025 14.6225 10 14.6275 10 14.6275C10 14.6275 4.80001 14.5812 3.20002 14.4275C2.75502 14.3437 1.75502 14.3687 0.995015 13.5725C0.395015 12.9637 0.200015 11.5887 0.200015 11.5887C0.200015 11.5887 1.52588e-05 9.97 1.52588e-05 8.35125V6.77625ZM7.93502 10.1888V4.57L13.3388 7.38875L7.93877 10.1888H7.93502Z" fill="black"/>
</svg>
